<svg width="36" height="31" viewBox="0 0 36 31" fill="none" xmlns="http://www.w3.org/2000/svg">
<path d="M27.3516 2.47272C28.6524 2.47272 29.8125 3.61039 29.8125 5.1386C29.8125 6.67225 28.6524 7.80447 27.3516 7.80447C26.0508 7.80447 24.8907 6.67225 24.8907 5.1386C24.8907 3.61039 26.0508 2.47272 27.3516 2.47272ZM18.0071 2.47272C19.3008 2.47272 20.468 3.61039 20.468 5.1386C20.468 6.67225 19.3008 7.80447 18.0071 7.80447C16.7063 7.80447 15.5391 6.67225 15.5391 5.1386C15.5391 3.61039 16.7063 2.47272 18.0071 2.47272ZM8.6555 2.47272C9.95629 2.47272 11.1164 3.61039 11.1164 5.1386C11.1164 6.67225 9.95629 7.80447 8.6555 7.80447C7.35472 7.80447 6.18824 6.67225 6.18824 5.1386C6.18824 3.61039 7.35472 2.47272 8.6555 2.47272ZM18.0071 9.07596C22.5071 9.19705 26.3039 9.19705 30.8602 9.33026C33.0328 10.408 34.0383 15.9299 33.975 17.8492L32.7375 18.9209C32.1961 16.3295 31.5141 12.8722 30.3821 12.1033V17.4072L30.6703 28.5297H29.1094L27.9352 17.3467H26.6696L25.4953 28.5297H23.9274L24.2227 17.4072L23.6602 12.0488H21.6L21.0938 17.389L21.3891 28.5115H19.8211L18.6399 17.3285H17.3743L16.193 28.5115H14.6321L14.9274 17.389L14.4141 12.0488H12.3539L11.7914 17.4072L12.0868 28.5297H10.5188L9.34457 17.3467H8.07894L6.89136 28.5297H5.33043L5.62574 17.4072V12.1033C4.48668 12.8722 3.80465 16.3295 3.26324 18.9209L2.02574 17.8492C1.96246 15.9299 2.97496 10.408 5.14058 9.33026C9.71019 9.19705 13.5071 9.19705 18.0071 9.07596Z" fill="#40B8A2"/>
</svg>
