<svg width="25" height="25" viewBox="0 0 25 25" fill="none" xmlns="http://www.w3.org/2000/svg">
<g filter="url(#filter0_d_627_165)">
<path d="M12.4139 0.534088C11.3391 0.534088 10.2749 0.745694 9.28193 1.15682C8.28898 1.56795 7.38677 2.17056 6.62681 2.93023C5.09199 4.46445 4.22974 6.5453 4.22974 8.71502C4.22974 12.331 6.57858 15.3988 9.82767 16.4869C10.2369 16.5524 10.3678 16.2987 10.3678 16.0779V14.6953C8.10082 15.1861 7.61796 13.599 7.61796 13.599C7.24149 12.65 6.70952 12.3964 6.70952 12.3964C5.96477 11.8892 6.76681 11.9056 6.76681 11.9056C7.58522 11.9629 8.01898 12.7482 8.01898 12.7482C8.731 13.9917 9.93407 13.6236 10.4006 13.4272C10.4742 12.8955 10.687 12.5355 10.9162 12.331C9.09929 12.1265 7.19239 11.4229 7.19239 8.30597C7.19239 7.39789 7.50338 6.66979 8.03535 6.08894C7.95351 5.88442 7.66707 5.0336 8.11719 3.92918C8.11719 3.92918 8.80466 3.70829 10.3678 4.76363C11.0144 4.58365 11.7182 4.49366 12.4139 4.49366C13.1095 4.49366 13.8133 4.58365 14.4599 4.76363C16.023 3.70829 16.7105 3.92918 16.7105 3.92918C17.1606 5.0336 16.8742 5.88442 16.7924 6.08894C17.3243 6.66979 17.6353 7.39789 17.6353 8.30597C17.6353 11.4311 15.7202 12.1183 13.8952 12.3228C14.1898 12.5764 14.4599 13.0755 14.4599 13.8363V16.0779C14.4599 16.2987 14.5908 16.5605 15.0082 16.4869C18.2573 15.3907 20.598 12.331 20.598 8.71502C20.598 7.64069 20.3863 6.57687 19.975 5.58431C19.5637 4.59176 18.9609 3.6899 18.2009 2.93023C17.4409 2.17056 16.5387 1.56795 15.5458 1.15682C14.5528 0.745694 13.4886 0.534088 12.4139 0.534088V0.534088Z" fill="#F6FDFD" fill-opacity="0.76" shape-rendering="crispEdges"/>
</g>
<defs>
<filter id="filter0_d_627_165" x="0.229736" y="0.534088" width="24.3682" height="23.9655" filterUnits="userSpaceOnUse" color-interpolation-filters="sRGB">
<feFlood flood-opacity="0" result="BackgroundImageFix"/>
<feColorMatrix in="SourceAlpha" type="matrix" values="0 0 0 0 0 0 0 0 0 0 0 0 0 0 0 0 0 0 127 0" result="hardAlpha"/>
<feOffset dy="4"/>
<feGaussianBlur stdDeviation="2"/>
<feComposite in2="hardAlpha" operator="out"/>
<feColorMatrix type="matrix" values="0 0 0 0 0 0 0 0 0 0 0 0 0 0 0 0 0 0 0.25 0"/>
<feBlend mode="normal" in2="BackgroundImageFix" result="effect1_dropShadow_627_165"/>
<feBlend mode="normal" in="SourceGraphic" in2="effect1_dropShadow_627_165" result="shape"/>
</filter>
</defs>
</svg>
