<svg width="44" height="31" viewBox="0 0 44 31" fill="none" xmlns="http://www.w3.org/2000/svg">
<path d="M4.4 4.5625C4.4 2.14941 6.37313 0.1875 8.8 0.1875H35.2C37.6269 0.1875 39.6 2.14941 39.6 4.5625V22.0625H35.2V4.5625H8.8V22.0625H4.4V4.5625ZM0 25.5625C0 24.8379 0.59125 24.25 1.32 24.25H42.68C43.4087 24.25 44 24.8379 44 25.5625C44 28.4609 41.635 30.8125 38.72 30.8125H5.28C2.365 30.8125 0 28.4609 0 25.5625ZM19.3188 12.2871L17.1875 14.4062L19.3188 16.5254C19.965 17.168 19.965 18.207 19.3188 18.8428C18.6725 19.4785 17.6275 19.4854 16.9881 18.8428L13.6881 15.5615C13.0419 14.9189 13.0419 13.8799 13.6881 13.2441L16.9881 9.96289C17.6344 9.32031 18.6794 9.32031 19.3188 9.96289C19.9581 10.6055 19.965 11.6445 19.3188 12.2803V12.2871ZM27.0188 9.96289L30.3188 13.2441C30.965 13.8867 30.965 14.9258 30.3188 15.5615L27.0188 18.8428C26.3725 19.4854 25.3275 19.4854 24.6881 18.8428C24.0488 18.2002 24.0419 17.1611 24.6881 16.5254L26.8194 14.4062L24.6881 12.2871C24.0419 11.6445 24.0419 10.6055 24.6881 9.96973C25.3344 9.33398 26.3794 9.32715 27.0188 9.96973V9.96289Z" fill="#40B8A2"/>
</svg>
