<svg width="53" height="53" viewBox="0 0 53 53" fill="none" xmlns="http://www.w3.org/2000/svg">
<path d="M26.5001 48.5834C23.6001 48.5834 20.7284 48.0122 18.0492 46.9024C15.3699 45.7926 12.9354 44.1659 10.8848 42.1153C6.74338 37.9739 4.41675 32.3569 4.41675 26.5C4.41675 20.6432 6.74338 15.0262 10.8848 10.8847C15.0262 6.74332 20.6432 4.41669 26.5001 4.41669C38.6459 4.41669 48.5834 13.25 48.5834 24.2917C48.5834 27.8058 47.1874 31.176 44.7026 33.6609C42.2177 36.1457 38.8475 37.5417 35.3334 37.5417H31.3584C30.6959 37.5417 30.2542 37.9834 30.2542 38.6459C30.2542 38.8667 30.4751 39.0875 30.4751 39.3084C31.3584 40.4125 31.8001 41.7375 31.8001 43.0625C32.0209 46.1542 29.5917 48.5834 26.5001 48.5834ZM26.5001 8.83335C21.8146 8.83335 17.321 10.6947 14.0079 14.0078C10.6947 17.3209 8.83342 21.8145 8.83342 26.5C8.83342 31.1855 10.6947 35.6791 14.0079 38.9922C17.321 42.3054 21.8146 44.1667 26.5001 44.1667C27.1626 44.1667 27.6042 43.725 27.6042 43.0625C27.6042 42.6209 27.3834 42.4 27.3834 42.1792C26.5001 41.075 26.0584 39.9709 26.0584 38.6459C26.0584 35.5542 28.4876 33.125 31.5793 33.125H35.3334C37.6762 33.125 39.923 32.1944 41.5795 30.5378C43.2361 28.8812 44.1668 26.6344 44.1668 24.2917C44.1668 15.6792 36.2168 8.83335 26.5001 8.83335ZM14.3542 22.0834C16.1209 22.0834 17.6667 23.6292 17.6667 25.3959C17.6667 27.1625 16.1209 28.7084 14.3542 28.7084C12.5876 28.7084 11.0417 27.1625 11.0417 25.3959C11.0417 23.6292 12.5876 22.0834 14.3542 22.0834ZM20.9792 13.25C22.7459 13.25 24.2917 14.7959 24.2917 16.5625C24.2917 18.3292 22.7459 19.875 20.9792 19.875C19.2126 19.875 17.6667 18.3292 17.6667 16.5625C17.6667 14.7959 19.2126 13.25 20.9792 13.25ZM32.0209 13.25C33.7876 13.25 35.3334 14.7959 35.3334 16.5625C35.3334 18.3292 33.7876 19.875 32.0209 19.875C30.2542 19.875 28.7084 18.3292 28.7084 16.5625C28.7084 14.7959 30.2542 13.25 32.0209 13.25ZM38.6459 22.0834C40.4126 22.0834 41.9584 23.6292 41.9584 25.3959C41.9584 27.1625 40.4126 28.7084 38.6459 28.7084C36.8792 28.7084 35.3334 27.1625 35.3334 25.3959C35.3334 23.6292 36.8792 22.0834 38.6459 22.0834Z" fill="#40B8A2"/>
</svg>
