<svg width="26" height="30" viewBox="0 0 26 30" fill="none" xmlns="http://www.w3.org/2000/svg">
<g filter="url(#filter0_d_627_73)">
<path d="M19.5349 3.8488C20.0294 3.84243 20.5063 4.04191 20.8607 4.40333C21.215 4.76476 21.4179 5.25853 21.4245 5.77602L21.6002 19.4345C21.6069 19.952 21.4168 20.4508 21.0719 20.8213C20.7269 21.1917 20.2553 21.4034 19.7608 21.4097L6.70931 21.5776C6.21481 21.584 5.73792 21.3845 5.38356 21.0231C5.02919 20.6616 4.82636 20.1679 4.81971 19.6504L4.644 5.99189C4.63734 5.4744 4.82739 4.97557 5.17235 4.60515C5.5173 4.23473 5.9889 4.02306 6.4834 4.01669L19.5349 3.8488ZM19.2633 18.9767L19.1968 13.806C19.1859 12.9625 18.8553 12.1576 18.2777 11.5685C17.7001 10.9794 16.9228 10.6542 16.1167 10.6646C15.3243 10.6748 14.4079 11.194 13.9702 11.9607L13.9563 10.8778L11.3553 10.9112L11.4604 19.0771L14.0614 19.0436L13.9995 14.2339C13.9898 13.4827 14.5599 12.8606 15.2777 12.8514C15.6239 12.8469 15.9577 12.9865 16.2058 13.2395C16.4538 13.4925 16.5958 13.8382 16.6005 14.2004L16.6623 19.0102L19.2633 18.9767ZM8.30581 9.41852C8.72119 9.41318 9.11733 9.23537 9.40709 8.92422C9.69685 8.61306 9.8565 8.19405 9.85091 7.75935C9.83923 6.85204 9.13051 6.11957 8.26351 6.13073C7.84567 6.1361 7.44716 6.31497 7.15568 6.62797C6.86419 6.94098 6.7036 7.36249 6.70922 7.79977C6.72089 8.70708 7.43882 9.42967 8.30581 9.41852M9.72639 19.0994L9.62134 10.9336L7.03901 10.9668L7.14406 19.1326L9.72639 19.0994V19.0994Z" fill="#F6FDFD" fill-opacity="0.76"/>
</g>
<defs>
<filter id="filter0_d_627_73" x="-2.24316" y="0.702606" width="30.6753" height="31.7024" filterUnits="userSpaceOnUse" color-interpolation-filters="sRGB">
<feFlood flood-opacity="0" result="BackgroundImageFix"/>
<feColorMatrix in="SourceAlpha" type="matrix" values="0 0 0 0 0 0 0 0 0 0 0 0 0 0 0 0 0 0 127 0" result="hardAlpha"/>
<feOffset dy="4"/>
<feGaussianBlur stdDeviation="2"/>
<feComposite in2="hardAlpha" operator="out"/>
<feColorMatrix type="matrix" values="0 0 0 0 0 0 0 0 0 0 0 0 0 0 0 0 0 0 0.25 0"/>
<feBlend mode="normal" in2="BackgroundImageFix" result="effect1_dropShadow_627_73"/>
<feBlend mode="normal" in="SourceGraphic" in2="effect1_dropShadow_627_73" result="shape"/>
</filter>
</defs>
</svg>
