<svg width="37" height="37" viewBox="0 0 37 37" fill="none" xmlns="http://www.w3.org/2000/svg">
<path d="M36.1378 17.2745L36.1375 17.275C35.7807 17.7507 35.238 18 34.6875 18C34.3099 18 33.931 17.8823 33.5994 17.637C33.5989 17.6366 33.5983 17.6362 33.5978 17.6358L27.5667 13.0926L27.3277 12.9126L27.0561 13.0381L22.2865 15.2422L21.5262 15.5936L22.1963 16.0961L25.9537 18.9141C25.9538 18.9142 25.9539 18.9143 25.9539 18.9143C26.8749 19.6067 27.3141 20.7828 27.0733 21.9071C27.0732 21.9072 27.0732 21.9073 27.0732 21.9073L25.4909 29.2768C25.4909 29.2771 25.4908 29.2773 25.4908 29.2776C25.3682 29.839 24.9837 30.2761 24.48 30.5135L23.3951 31.0248L24.5219 31.4356L31.0836 33.8276L31.0852 33.8281C31.9073 34.1248 32.8038 34.0924 33.5994 33.7164C34.2161 33.4294 34.9512 33.697 35.2389 34.3136C35.5268 34.9305 35.2592 35.6664 34.6423 35.9543L34.6395 35.9556C33.8694 36.3208 33.0467 36.5 32.216 36.5C31.554 36.5 30.8888 36.3809 30.2399 36.1469C30.2398 36.1468 30.2396 36.1467 30.2394 36.1467L3.87815 26.5575L3.87758 26.5573C2.42783 26.0319 1.27893 24.9764 0.62653 23.5784C0.338618 22.9615 0.60621 22.2256 1.22316 21.9377C1.84011 21.6497 2.57599 21.9173 2.8639 22.5343L2.86415 22.5348C3.2373 23.332 3.89415 23.9393 4.72207 24.2383C4.72227 24.2383 4.72248 24.2384 4.72268 24.2385L7.5179 25.2569L8.0278 24.4193C7.79618 24.206 7.62455 23.9716 7.53561 23.6995L7.53469 23.6968C7.21692 22.7435 7.72736 21.7194 8.67823 21.4025L14.0331 19.6175L14.375 19.5035V19.1432V15.3059C14.375 13.7328 15.2501 12.3228 16.6568 11.6195L19.6342 10.1308L20.711 9.59237L19.5695 9.20954L18.3859 8.81258C18.3856 8.8125 18.3854 8.81243 18.3852 8.81236C17.633 8.5573 17.0224 8.03127 16.6708 7.32815L16.6707 7.32784L14.5679 3.12952C14.1205 2.23471 14.4829 1.14755 15.3777 0.700143C16.2725 0.252739 17.3597 0.615127 17.8071 1.50993L17.8073 1.51028L19.6934 5.27532L19.7861 5.46041L19.9825 5.52578L24.5859 7.05782L24.5865 7.05803C25.7111 7.43059 26.7689 7.99012 27.7248 8.70344C27.725 8.70363 27.7253 8.70382 27.7255 8.70402L35.7751 14.7376L35.7759 14.7382C36.579 15.3377 36.7385 16.4756 36.1378 17.2745ZM23.3538 21.8783L23.4208 21.5653L23.1645 21.3734L18.7925 18.0998L17.9928 17.501V18.5V19.9814C17.9928 21.2623 17.1765 22.3932 15.9651 22.7949L15.964 22.7953L9.82143 24.8476L9.82143 24.8476L9.81633 24.8494C9.70009 24.8896 9.5705 24.902 9.36482 24.9172L9.23089 25.8857L21.4727 30.3373L22.6187 30.754L22.0951 29.6527C21.9208 29.2859 21.85 28.9074 21.9302 28.5263C21.9303 28.526 21.9303 28.5257 21.9304 28.5254L23.3538 21.8783ZM34.1875 3.46875C34.1875 5.10765 32.8576 6.4375 31.2188 6.4375C29.5799 6.4375 28.25 5.10765 28.25 3.46875C28.25 1.82985 29.5799 0.5 31.2188 0.5C32.8576 0.5 34.1875 1.82985 34.1875 3.46875Z" fill="#40B8A2" stroke="#40B8A2"/>
</svg>
